<?xml version="1.0" encoding="iso-8859-1"?>
<!-- Generator: Adobe Illustrator 23.0.0, SVG Export Plug-In . SVG Version: 6.00 Build 0)  -->
<svg version="1.1" xmlns="http://www.w3.org/2000/svg" xmlns:xlink="http://www.w3.org/1999/xlink" x="0px" y="0px"
	 width="1251.36px" height="810px" viewBox="0 0 1251.36 810" enable-background="new 0 0 1251.36 810" xml:space="preserve">
<g id="Layer_1">
</g>
<g id="Mountain_Sunrise">
	<linearGradient id="SVGID_1_" gradientUnits="userSpaceOnUse" x1="625.68" y1="-9" x2="625.68" y2="810.1083">
		<stop  offset="0" style="stop-color:#33B6C8"/>
		<stop  offset="1" style="stop-color:#79CBCF"/>
	</linearGradient>
	<polygon fill="url(#SVGID_1_)" points="1251.18,0 1251.18,810 0.18,810 0.18,0 	"/>
	<g>
		<defs>
			<rect id="SVGID_2_" x="0.18" y="0" width="1251.18" height="809.538"/>
		</defs>
		<clipPath id="SVGID_3_">
			<use xlink:href="#SVGID_2_"  overflow="visible"/>
		</clipPath>
		<g clip-path="url(#SVGID_3_)">
			<circle fill="#FBDB5F" cx="625.68" cy="570.206" r="136.13"/>
			<circle opacity="0.2" fill="#FBDB5F" cx="625.68" cy="570.206" r="170.088"/>
			<circle opacity="0.2" fill="#FBDB5F" cx="625.68" cy="570.206" r="221.32"/>
			<circle opacity="0.1" fill="#FBDB5F" cx="625.68" cy="570.206" r="291.32"/>
		</g>
	</g>
	<g>
		<linearGradient id="SVGID_4_" gradientUnits="userSpaceOnUse" x1="419.1495" y1="316.8616" x2="246.8222" y2="949.2668">
			<stop  offset="0" style="stop-color:#0B1A40"/>
			<stop  offset="0.5324" style="stop-color:#196D88"/>
			<stop  offset="0.9973" style="stop-color:#33B6C8"/>
		</linearGradient>
		<polygon fill="url(#SVGID_4_)" points="0.18,603.081 342.605,424.589 650,721 0.18,810 		"/>
		<linearGradient id="SVGID_5_" gradientUnits="userSpaceOnUse" x1="675.9337" y1="357.9916" x2="387.8241" y2="940.5546">
			<stop  offset="0" style="stop-color:#BBCF68"/>
			<stop  offset="0.5" style="stop-color:#79CBCF"/>
			<stop  offset="1" style="stop-color:#196D88"/>
		</linearGradient>
		<polygon fill="url(#SVGID_5_)" points="783.583,747.723 342.605,424.589 318.606,510.085 398.102,567.082 274.896,788.161 		"/>
		<linearGradient id="SVGID_6_" gradientUnits="userSpaceOnUse" x1="583.8282" y1="578.6839" x2="436.2188" y2="631.8803">
			<stop  offset="0" style="stop-color:#FBDB5F"/>
			<stop  offset="1" style="stop-color:#FBDB5F;stop-opacity:0"/>
		</linearGradient>
		<polygon opacity="0.5" fill="url(#SVGID_6_)" points="783.583,747.723 342.605,424.589 318.606,510.085 398.102,567.082 
			274.896,788.161 		"/>
	</g>
	<g>
		<linearGradient id="SVGID_7_" gradientUnits="userSpaceOnUse" x1="665.5296" y1="1055.5756" x2="819.7839" y2="335.3444">
			<stop  offset="0" style="stop-color:#0B1A40"/>
			<stop  offset="0.5324" style="stop-color:#196D88"/>
			<stop  offset="0.9973" style="stop-color:#33B6C8"/>
		</linearGradient>
		<polygon fill="url(#SVGID_7_)" points="293.675,738.074 869.646,424.589 1177.042,721 527.222,810 		"/>
		<linearGradient id="SVGID_8_" gradientUnits="userSpaceOnUse" x1="710.5784" y1="620.0787" x2="686.5634" y2="513.9991">
			<stop  offset="0" style="stop-color:#FBDB5F;stop-opacity:0"/>
			<stop  offset="1" style="stop-color:#FBDB5F"/>
		</linearGradient>
		<polygon opacity="0.5" fill="url(#SVGID_8_)" points="293.675,738.074 869.646,424.589 1177.042,721 527.222,810 		"/>
		<linearGradient id="SVGID_9_" gradientUnits="userSpaceOnUse" x1="1053.0406" y1="192.3021" x2="1014.0278" y2="916.5674">
			<stop  offset="0" style="stop-color:#FBDB5F"/>
			<stop  offset="0.5" style="stop-color:#79CBCF"/>
			<stop  offset="1" style="stop-color:#196D88"/>
		</linearGradient>
		<polygon fill="url(#SVGID_9_)" points="1251.36,703.559 869.646,424.589 805.15,502.586 955.142,606.375 815.866,787.475 
			1002.004,778.304 1251.36,802.31 		"/>
	</g>
	<g>
		<defs>
			
				<rect id="SVGID_10_" x="220.68" y="-220.5" transform="matrix(4.488860e-11 -1 1 4.488860e-11 220.68 1030.6801)" width="810" height="1251"/>
		</defs>
		<clipPath id="SVGID_11_">
			<use xlink:href="#SVGID_10_"  overflow="visible"/>
		</clipPath>
		<g clip-path="url(#SVGID_11_)">
			<linearGradient id="SVGID_12_" gradientUnits="userSpaceOnUse" x1="-161.7253" y1="825.1716" x2="478.8502" y2="611.3572">
				<stop  offset="0" style="stop-color:#D9FFFC"/>
				<stop  offset="1" style="stop-color:#D9FFFC;stop-opacity:0.25"/>
			</linearGradient>
			<path opacity="0.25" fill="url(#SVGID_12_)" d="M62.704,548.414c16.526,7.388,30.48,19.372,45.425,29.586
				c41.488,28.354,91.99,43.298,142.226,42.086c46.631-1.124,93.516-15.679,139.244-6.481
				c41.392,8.326,77.664,35.492,119.576,40.588c34.322,4.173,68.626-6.931,103.193-7.661c76.443-1.613,143.91,46.47,205.037,92.4
				c-142.972,16.876-286.887,25.758-430.849,26.593c-39.982,0.232-80.035-0.154-119.861,3.381
				c-30.623,2.718-60.991,7.744-91.263,13.102c-77.404,13.699-154.42,29.595-230.922,47.664
				c-2.204,0.521,3.696-186.178,5.884-203.397c2.574-20.257,2.273-74.27,20.249-85.167C-9.253,528.92,42.931,539.574,62.704,548.414
				z"/>
			
				<linearGradient id="SVGID_13_" gradientUnits="userSpaceOnUse" x1="352.9828" y1="1062.2251" x2="1232.9011" y2="433.7296" gradientTransform="matrix(0.9995 0.0319 -0.0319 0.9995 15.7673 -26.6059)">
				<stop  offset="0" style="stop-color:#D9FFFC"/>
				<stop  offset="1" style="stop-color:#D9FFFC;stop-opacity:0.25"/>
			</linearGradient>
			<path opacity="0.25" fill="url(#SVGID_13_)" d="M413.253,653.548c57.379-21.244,123.965-23.562,187.793-30.277
				c63.828-6.715,130.987-20.115,172.179-56.433c50.9-44.879,47.518-110.266,67.164-167.341c7.565-21.979,19.66-44.06,42.735-58.8
				c25.306-16.166,60.344-21.311,94.005-22.545c33.661-1.234,67.776,0.839,100.904-3.427
				c55.724-7.176,106.077-33.078,134.361-69.117c11.685-14.888,22.94-33.267,45.876-36.542
				c29.241-4.174,52.064,19.377,62.234,40.343c28.397,58.543,26.077,122.051,23.404,183.802
				c-3.935,90.886-7.883,181.908-22.393,272.051c-2.285,14.197-5.244,29.118-17.174,40.228
				c-14.958,13.93-41.263,18.773-65.468,17.23s-47.221-8.469-70.289-14.363c-59.699-15.252-122.281-23.968-185.051-25.771
				c-22.666-0.651-45.611-0.383-67.465,3.767c-37.739,7.167-69.454,25.281-104.508,37.686
				c-73.156,25.889-158.524,26.135-239.936,19.871c-40.76-3.136-81.307-7.787-122.019-11.276
				c-21.112-1.809-42.267-3.368-63.469-4.211c-11.326-0.45-50.672,3.798-58.876-1.284c-18.814-11.655,5.518-53.602,14.352-64.723
				C358.238,681.491,383.985,664.384,413.253,653.548z"/>
		</g>
	</g>
	<linearGradient id="SVGID_14_" gradientUnits="userSpaceOnUse" x1="922.7297" y1="510.1939" x2="1151.1112" y2="510.1939">
		<stop  offset="0" style="stop-color:#D9FFFC"/>
		<stop  offset="1" style="stop-color:#D9FFFC;stop-opacity:0.25"/>
	</linearGradient>
	<path opacity="0.75" fill="url(#SVGID_14_)" d="M1168.185,549.279c-2.692-7.695-11.857-13.405-22.838-13.615
		c-3.384-17.532-19.754-30.835-39.454-30.835c-4.204,0-8.255,0.608-12.063,1.731c-8.222-20.701-29.509-35.452-54.482-35.452
		c-31.176,0-56.612,22.986-58.045,51.845c-8.524,5.055-14.125,13.586-14.125,23.26c0,1.036,0.069,2.058,0.194,3.065H1168.185z"/>
	<g>
		<linearGradient id="SVGID_15_" gradientUnits="userSpaceOnUse" x1="101.5404" y1="272.0038" x2="135.1079" y2="841.2831">
			<stop  offset="0" style="stop-color:#2E8F51"/>
			<stop  offset="0.4676" style="stop-color:#196D88"/>
			<stop  offset="1" style="stop-color:#0B1A40"/>
		</linearGradient>
		<path fill="url(#SVGID_15_)" d="M92,805.535c41.771,0,82,0,82,0s-13.304-91.832-28.791-197.817L107,616.535l34.648-33.173
			c-5.176-35.375-10.496-71.641-15.566-106.044L93,492.535l31.105-28.617c-6.614-44.815-12.701-85.742-17.347-116.393L95,354.535
			l10.857-12.944c-4.257-27.983-7.142-46.197-7.857-49.056c-1.565-6.259-3.764-7.256-6-5.697V805.535z"/>
		<linearGradient id="SVGID_16_" gradientUnits="userSpaceOnUse" x1="143.3851" y1="261.0901" x2="42.5365" y2="791.1724">
			<stop  offset="0" style="stop-color:#2E8F51"/>
			<stop  offset="1" style="stop-color:#0B1A40"/>
		</linearGradient>
		<path fill="url(#SVGID_16_)" d="M92,286.838c-3.863,2.695-7.838,13.029-8.845,17.095c-2.69,10.863-2.778,22.14-4.621,33.134
			c-3.336,19.901-6.672,39.8-10.008,59.7c-2.672,15.936-5.343,31.872-8.015,47.807L79,458.535H58.172
			C48.01,519.148,37.849,579.761,27.688,640.374L71,673.535H22.129c-7.376,44-14.752,88-22.129,132c0,0,46.899,0,92,0V286.838z"/>
	</g>
	<g>
		<linearGradient id="SVGID_17_" gradientUnits="userSpaceOnUse" x1="234.6019" y1="533.7794" x2="248.2" y2="764.3939">
			<stop  offset="0" style="stop-color:#2E8F51"/>
			<stop  offset="0.4676" style="stop-color:#196D88"/>
			<stop  offset="1" style="stop-color:#0B1A40"/>
		</linearGradient>
		<path fill="url(#SVGID_17_)" d="M223.527,749.49c24.241,0,47.588,0,47.588,0s-7.721-37.054-16.709-79.819l-22.174,3.558
			l20.107-13.385c-3.004-14.274-6.091-28.907-9.034-42.789l-19.198,6.14l18.052-11.547c-3.838-18.083-7.371-34.597-10.067-46.964
			l-6.823,2.828l6.301-5.223c-2.47-11.291-4.145-18.641-4.56-19.794c-0.908-2.526-2.184-2.928-3.482-2.299V749.49z"/>
		<linearGradient id="SVGID_18_" gradientUnits="userSpaceOnUse" x1="238.8611" y1="528.5743" x2="197.5865" y2="745.5223">
			<stop  offset="0" style="stop-color:#2E8F51"/>
			<stop  offset="1" style="stop-color:#0B1A40"/>
		</linearGradient>
		<path fill="url(#SVGID_18_)" d="M223.527,540.196c-2.242,1.087-4.549,5.257-5.133,6.898c-1.561,4.383-1.612,8.933-2.682,13.37
			c-1.936,8.03-3.872,16.059-5.808,24.089c-1.55,6.43-3.101,12.86-4.651,19.29l10.729,5.633h-12.088
			c-5.897,24.457-11.794,48.915-17.691,73.372l25.136,13.38h-28.362c-4.281,17.754-8.561,35.508-12.842,53.262
			c0,0,27.217,0,53.391,0V540.196z"/>
	</g>
	<g>
		<linearGradient id="SVGID_19_" gradientUnits="userSpaceOnUse" x1="698.3077" y1="377.8814" x2="732.454" y2="956.9753">
			<stop  offset="0" style="stop-color:#79CBCF"/>
			<stop  offset="0.5243" style="stop-color:#2E8F51"/>
			<stop  offset="1" style="stop-color:#0B1A40"/>
		</linearGradient>
		<path fill="url(#SVGID_19_)" d="M699.276,700.268c18.38,0,36.082,0,36.082,0s-5.854-34.528-12.669-74.377l-16.813,3.315
			l15.246-12.473c-2.277-13.301-4.618-26.936-6.85-39.871l-14.557,5.722l13.687-10.76c-2.91-16.85-5.589-32.238-7.633-43.762
			l-5.174,2.635l4.777-4.867c-1.873-10.521-3.143-17.37-3.457-18.444c-0.689-2.353-1.656-2.728-2.64-2.142V700.268z"/>
		<linearGradient id="SVGID_20_" gradientUnits="userSpaceOnUse" x1="726.1669" y1="452.532" x2="614.5613" y2="1039.1555">
			<stop  offset="0" style="stop-color:#79CBCF"/>
			<stop  offset="0.5243" style="stop-color:#2E8F51"/>
			<stop  offset="1" style="stop-color:#0B1A40"/>
		</linearGradient>
		<path fill="url(#SVGID_20_)" d="M699.276,505.245c-1.7,1.013-3.449,4.899-3.892,6.428c-1.184,4.084-1.223,8.324-2.033,12.458
			c-1.468,7.483-2.936,14.964-4.404,22.446c-1.176,5.992-2.351,11.983-3.527,17.975l8.135,5.249h-9.165
			c-4.471,22.79-8.942,45.579-13.414,68.369l19.059,12.468h-21.505c-3.246,16.543-6.492,33.087-9.737,49.63c0,0,20.637,0,40.482,0
			V505.245z"/>
	</g>
	<g>
		<linearGradient id="SVGID_21_" gradientUnits="userSpaceOnUse" x1="760.7288" y1="430.6556" x2="795.0692" y2="1013.0421">
			<stop  offset="0" style="stop-color:#79CBCF"/>
			<stop  offset="0.5243" style="stop-color:#2E8F51"/>
			<stop  offset="1" style="stop-color:#0B1A40"/>
		</linearGradient>
		<path fill="url(#SVGID_21_)" d="M752.07,754.311c28.264,0,55.485,0,55.485,0s-9.002-34.528-19.482-74.377l-25.854,3.315
			l23.444-12.473c-3.502-13.301-7.102-26.936-10.533-39.871l-22.384,5.722l21.047-10.76c-4.475-16.85-8.594-32.238-11.738-43.762
			l-7.956,2.635l7.346-4.867c-2.88-10.521-4.833-17.37-5.316-18.444c-1.059-2.353-2.547-2.728-4.06-2.142V754.311z"/>
		<linearGradient id="SVGID_22_" gradientUnits="userSpaceOnUse" x1="777.8843" y1="455.0229" x2="663.9986" y2="1053.6312">
			<stop  offset="0" style="stop-color:#79CBCF"/>
			<stop  offset="0.5243" style="stop-color:#2E8F51"/>
			<stop  offset="1" style="stop-color:#0B1A40"/>
		</linearGradient>
		<path fill="url(#SVGID_22_)" d="M752.07,559.288c-2.614,1.013-5.303,4.899-5.985,6.428c-1.82,4.084-1.88,8.324-3.127,12.458
			c-2.258,7.483-4.515,14.964-6.772,22.446c-1.808,5.992-3.615,11.983-5.423,17.975l12.51,5.249H729.18
			c-6.876,22.79-13.751,45.579-20.627,68.369l29.307,12.468h-33.069c-4.991,16.543-9.982,33.087-14.973,49.63c0,0,31.734,0,62.252,0
			V559.288z"/>
	</g>
	
		<linearGradient id="SVGID_23_" gradientUnits="userSpaceOnUse" x1="745.8676" y1="680.3302" x2="1008.1878" y2="680.3302" gradientTransform="matrix(0.9866 0.0661 -0.0668 0.9978 56.1477 -53.02)">
		<stop  offset="0" style="stop-color:#2E8F51"/>
		<stop  offset="1" style="stop-color:#0B1A40"/>
	</linearGradient>
	<path fill="url(#SVGID_23_)" d="M755.69,675.356c5.015-2.441,10.549-2.664,15.891-2.206c2.26,0.194,4.637,0.48,6.723-0.655
		c2.289-1.245,3.757-3.934,5.344-6.283c6.763-10.01,17.989-15.426,28.474-13.738c10.485,1.688,19.843,10.418,23.738,22.144
		c8.202,0.369,16.809,0.88,23.716,6.015c2.873,2.136,5.315,4.985,7.733,7.811c1.413,1.652,2.826,3.303,4.24,4.955
		c2.902,3.392,5.897,6.957,7.203,11.582c-22.298,2.706-45.017,5.39-66.789-0.095c-13.211-3.328-25.892-9.63-39.391-10.893
		c-6.096-0.57-20.036,2.356-24.995-2.432C741.875,686.053,751.06,677.61,755.69,675.356z"/>
	<linearGradient id="SVGID_24_" gradientUnits="userSpaceOnUse" x1="851.0266" y1="667.3088" x2="1028.7056" y2="710.5726">
		<stop  offset="0" style="stop-color:#BBCF68"/>
		<stop  offset="1" style="stop-color:#2E8F51"/>
	</linearGradient>
	<path fill="url(#SVGID_24_)" d="M987.532,687.091c-1.067-16.695-15.398-29.919-32.929-29.919c-7.741,0-14.854,2.585-20.482,6.901
		c-2.222-2.184-4.997-3.497-8.018-3.497c-7.272,0-13.167,7.526-13.167,16.809c0,1.557,0.179,3.058,0.489,4.489
		c-6.683,3.683-11.156,10.395-11.156,18.065c0,11.633,10.285,21.064,22.972,21.064c5.01,0,9.642-1.475,13.417-3.971
		c4.727,2.528,10.16,3.971,15.944,3.971c7.547,0,14.498-2.456,20.058-6.579c1.519,0.399,3.123,0.621,4.788,0.621
		c9.29,0,16.821-6.668,16.821-14.894C996.269,694.521,992.738,689.623,987.532,687.091z"/>
	
		<radialGradient id="SVGID_25_" cx="740.3427" cy="681.4714" r="603.9129" gradientTransform="matrix(1 0 0 0.406 0 404.8165)" gradientUnits="userSpaceOnUse">
		<stop  offset="0" style="stop-color:#BBCF68"/>
		<stop  offset="1" style="stop-color:#31A16C"/>
	</radialGradient>
	<path fill="url(#SVGID_25_)" d="M1251.18,798.309c-59.016-64.389-316.629-112.862-625.5-112.862S59.196,733.919,0.18,798.309V810
		h1251V798.309z"/>
	<g>
		<defs>
			<path id="SVGID_26_" d="M1251.18,798.309c-59.016-64.389-316.629-112.862-625.5-112.862S59.196,733.919,0.18,798.309V810h1251
				V798.309z"/>
		</defs>
		<clipPath id="SVGID_27_">
			<use xlink:href="#SVGID_26_"  overflow="visible"/>
		</clipPath>
		<linearGradient id="PATH_1_" gradientUnits="userSpaceOnUse" x1="376.871" y1="837.3812" x2="693.7712" y2="731.6047">
			<stop  offset="0" style="stop-color:#D9FFFC"/>
			<stop  offset="1" style="stop-color:#D9FFFC;stop-opacity:0.25"/>
		</linearGradient>
		<path id="PATH" clip-path="url(#SVGID_27_)" fill="url(#PATH_1_)" d="M419.514,810c0,0,48.317-49.246,107.138-58.138
			c58.822-8.892,114.223-2.736,153.21-15.047c38.986-12.311,104.229-50.124,70.582-82.857c23.814,2.249,56.56,5.636,63.009,6.365
			s21.671,45.197-15.263,73.498s-83.445,55.66-124.483,59.764c-41.038,4.104-110.119-12.995-133.374,16.415
			C510.921,810,419.514,810,419.514,810z"/>
	</g>
	<g>
		<linearGradient id="SVGID_28_" gradientUnits="userSpaceOnUse" x1="1185.5006" y1="473.3002" x2="1246.4885" y2="1507.6072">
			<stop  offset="0" style="stop-color:#2E8F51"/>
			<stop  offset="0.4676" style="stop-color:#196D88"/>
			<stop  offset="1" style="stop-color:#0B1A40"/>
		</linearGradient>
		<path fill="url(#SVGID_28_)" d="M1159.294,809.538c46.899,0,92.066,0,92.066,0s-14.937-71.443-32.326-153.896l-42.899,6.86
			l38.901-25.808c-5.811-27.521-11.784-55.735-17.477-82.5l-37.142,11.839l34.923-22.263c-7.426-34.865-14.26-66.705-19.477-90.55
			l-13.201,5.453l12.189-10.07c-4.779-21.77-8.019-35.94-8.821-38.164c-1.757-4.87-4.226-5.645-6.737-4.432V809.538z"/>
		<linearGradient id="SVGID_29_" gradientUnits="userSpaceOnUse" x1="1207.2908" y1="285.7881" x2="1099.1891" y2="853.9944">
			<stop  offset="0" style="stop-color:#BBCF68"/>
			<stop  offset="1" style="stop-color:#2E8F51"/>
		</linearGradient>
		<path fill="url(#SVGID_29_)" d="M1159.294,406.007c-4.338,2.097-8.8,10.136-9.93,13.3c-3.021,8.451-3.119,17.224-5.188,25.777
			c-3.746,15.483-7.491,30.964-11.237,46.445c-3,12.398-5.999,24.795-8.998,37.193l20.758,10.861h-23.385
			c-11.409,47.155-22.817,94.311-34.226,141.466l48.629,25.798h-54.871c-8.282,34.231-16.563,68.462-24.845,102.692
			c0,0,52.656,0,103.294,0V406.007z"/>
	</g>
	<g>
		<linearGradient id="SVGID_30_" gradientUnits="userSpaceOnUse" x1="990.1525" y1="599.1984" x2="1032.8109" y2="1322.6526">
			<stop  offset="0" style="stop-color:#2E8F51"/>
			<stop  offset="0.4676" style="stop-color:#196D88"/>
			<stop  offset="1" style="stop-color:#0B1A40"/>
		</linearGradient>
		<path fill="url(#SVGID_30_)" d="M984.514,809.538c18.38,0,36.082,0,36.082,0s-5.854-43.227-12.669-93.116l-16.813,4.151
			l15.246-15.615c-2.277-16.652-4.618-33.723-6.85-49.917l-14.557,7.163l13.687-13.47c-2.91-21.095-5.589-40.36-7.633-54.788
			l-5.174,3.299l4.777-6.093c-1.873-13.172-3.143-21.746-3.457-23.091c-0.689-2.946-1.656-3.416-2.64-2.682V809.538z"/>
		<linearGradient id="SVGID_31_" gradientUnits="userSpaceOnUse" x1="1020.9855" y1="489.4729" x2="882.3293" y2="1218.2803">
			<stop  offset="0" style="stop-color:#2E8F51"/>
			<stop  offset="1" style="stop-color:#0B1A40"/>
		</linearGradient>
		<path fill="url(#SVGID_31_)" d="M984.514,565.379c-1.7,1.269-3.449,6.133-3.892,8.047c-1.184,5.113-1.222,10.422-2.033,15.597
			c-1.468,9.368-2.936,18.735-4.404,28.102c-1.176,7.501-2.351,15.003-3.527,22.504l8.135,6.571h-9.165
			c-4.471,28.532-8.942,57.063-13.414,85.595l19.059,15.609h-21.505c-3.246,20.712-6.491,41.423-9.737,62.135c0,0,20.637,0,40.482,0
			V565.379z"/>
	</g>
	<polygon fill="#79CBCF" points="734.503,195.589 736.257,200.33 740.999,202.085 736.257,203.84 734.503,208.582 732.748,203.84 
		728.006,202.085 732.748,200.33 	"/>
	<polygon fill="#79CBCF" points="807.556,56.114 809.31,60.856 814.052,62.611 809.31,64.365 807.556,69.107 805.801,64.365 
		801.059,62.611 805.801,60.856 	"/>
	<polygon fill="#79CBCF" points="955.766,342.389 957.52,347.131 962.262,348.886 957.52,350.641 955.766,355.382 954.011,350.641 
		949.269,348.886 954.011,347.131 	"/>
	<polygon fill="#79CBCF" points="281.393,355.428 283.147,360.17 287.889,361.925 283.147,363.679 281.393,368.421 279.638,363.679 
		274.896,361.925 279.638,360.17 	"/>
	<polygon fill="#79CBCF" points="1123.421,361.925 1125.176,366.667 1129.918,368.421 1125.176,370.176 1123.421,374.918 
		1121.667,370.176 1116.925,368.421 1121.667,366.667 	"/>
	<polygon fill="#A3E8E4" points="1136.414,104 1139.023,111.051 1146.074,113.66 1139.023,116.269 1136.414,123.319 
		1133.805,116.269 1126.755,113.66 1133.805,111.051 	"/>
	<polygon fill="#A3E8E4" points="529.24,136.177 531.848,143.227 538.899,145.836 531.848,148.445 529.24,155.496 526.63,148.445 
		519.58,145.836 526.63,143.227 	"/>
	<polygon fill="#A3E8E4" points="123.34,113.66 125.949,120.71 133,123.319 125.949,125.928 123.34,132.979 120.731,125.928 
		113.681,123.319 120.731,120.71 	"/>
	<linearGradient id="SVGID_32_" gradientUnits="userSpaceOnUse" x1="1.5503" y1="202.0851" x2="229.9319" y2="202.0851">
		<stop  offset="0" style="stop-color:#D9FFFC"/>
		<stop  offset="1" style="stop-color:#D9FFFC;stop-opacity:0.25"/>
	</linearGradient>
	<path opacity="0.5" fill="url(#SVGID_32_)" d="M247.006,241.17c-2.692-7.695-11.857-13.405-22.838-13.615
		c-3.384-17.532-19.754-30.835-39.454-30.835c-4.204,0-8.255,0.608-12.063,1.731C164.43,177.751,143.142,163,118.17,163
		c-31.176,0-56.612,22.986-58.045,51.845C51.601,219.899,46,228.43,46,238.105c0,1.036,0.069,2.058,0.194,3.065H247.006z"/>
	<linearGradient id="SVGID_33_" gradientUnits="userSpaceOnUse" x1="1098.8824" y1="365.8576" x2="1222.0271" y2="365.8576">
		<stop  offset="0" style="stop-color:#D9FFFC"/>
		<stop  offset="1" style="stop-color:#D9FFFC;stop-opacity:0.25"/>
	</linearGradient>
	<path fill="url(#SVGID_33_)" d="M1229.416,384.984c1.159-1.704,1.818-3.648,1.818-5.713c0-4.668-3.357-8.721-8.287-10.771
		c-3.301-8.236-13.134-14.212-24.753-14.212c-1.521,0-3.009,0.108-4.458,0.305c-4.402-4.83-10.743-7.861-17.792-7.861
		c-8.266,0-15.557,4.169-19.89,10.517c-7.194,0.373-13.12,4.468-14.808,9.908c-10.335,0.78-18.395,7.151-18.395,14.895
		c0,1.004,0.138,1.985,0.396,2.933H1229.416z"/>
	<linearGradient id="SVGID_34_" gradientUnits="userSpaceOnUse" x1="105.0201" y1="456" x2="291.7355" y2="456">
		<stop  offset="0" style="stop-color:#D9FFFC"/>
		<stop  offset="1" style="stop-color:#D9FFFC;stop-opacity:0.25"/>
	</linearGradient>
	<path fill="url(#SVGID_34_)" d="M302.938,485c1.757-2.584,2.756-5.531,2.756-8.661c0-7.077-5.09-13.223-12.565-16.332
		c-5.005-12.488-19.915-21.549-37.531-21.549c-2.306,0-4.563,0.164-6.76,0.462C242.164,431.596,232.55,427,221.861,427
		c-12.533,0-23.587,6.321-30.158,15.946c-10.908,0.566-19.893,6.774-22.452,15.022c-15.671,1.183-27.891,10.842-27.891,22.584
		c0,1.523,0.209,3.009,0.601,4.448H302.938z"/>
	<g>
	</g>
	<g>
	</g>
	<g>
	</g>
	<g>
	</g>
	<g>
	</g>
	<g>
	</g>
</g>
</svg>
